<svg width="16" height="13" viewBox="0 0 16 13" fill="none" xmlns="http://www.w3.org/2000/svg">
<path d="M16 5.6V12.8H14.4V10.4H1.6V12.8H0V0H1.6V8H8V2.4H12.8C13.6487 2.4 14.4626 2.73714 15.0627 3.33726C15.6629 3.93737 16 4.75131 16 5.6ZM4.8 7.2C4.16348 7.2 3.55303 6.94714 3.10294 6.49706C2.65286 6.04697 2.4 5.43652 2.4 4.8C2.4 4.16348 2.65286 3.55303 3.10294 3.10294C3.55303 2.65286 4.16348 2.4 4.8 2.4C5.43652 2.4 6.04697 2.65286 6.49706 3.10294C6.94714 3.55303 7.2 4.16348 7.2 4.8C7.2 5.43652 6.94714 6.04697 6.49706 6.49706C6.04697 6.94714 5.43652 7.2 4.8 7.2Z" fill="#858585"/>
</svg>
