<svg width="14" height="17" viewBox="0 0 14 17" fill="none" xmlns="http://www.w3.org/2000/svg">
<path d="M7 16.8995L2.05022 11.9497C1.07127 10.9707 0.404589 9.72346 0.1345 8.3656C-0.13559 7.00773 0.00303866 5.60027 0.532854 4.32119C1.06267 3.04212 1.95988 1.94887 3.11102 1.17971C4.26216 0.410541 5.61553 0 7 0C8.38446 0 9.73784 0.410541 10.889 1.17971C12.0401 1.94887 12.9373 3.04212 13.4671 4.32119C13.997 5.60027 14.1356 7.00773 13.8655 8.3656C13.5954 9.72346 12.9287 10.9707 11.9498 11.9497L7 16.8995ZM10.85 10.8499C11.6114 10.0885 12.1298 9.11839 12.3399 8.06228C12.5499 7.00618 12.442 5.91151 12.03 4.9167C11.6179 3.92189 10.92 3.07162 10.0247 2.4734C9.12939 1.87518 8.07679 1.55589 7 1.55589C5.92321 1.55589 4.87061 1.87518 3.97529 2.4734C3.07997 3.07162 2.38214 3.92189 1.97004 4.9167C1.55795 5.91151 1.4501 7.00618 1.66013 8.06228C1.87016 9.11839 2.38864 10.0885 3.15 10.8499L7 14.6999L10.85 10.8499V10.8499ZM7 8.55549C6.58744 8.55549 6.19178 8.3916 5.90006 8.09988C5.60833 7.80816 5.44445 7.4125 5.44445 6.99994C5.44445 6.58738 5.60833 6.19172 5.90006 5.89999C6.19178 5.60827 6.58744 5.44438 7 5.44438C7.41256 5.44438 7.80822 5.60827 8.09994 5.89999C8.39167 6.19172 8.55555 6.58738 8.55555 6.99994C8.55555 7.4125 8.39167 7.80816 8.09994 8.09988C7.80822 8.3916 7.41256 8.55549 7 8.55549Z" fill="white"/>
</svg>
