<svg width="15" height="19" viewBox="0 0 15 19" fill="none" xmlns="http://www.w3.org/2000/svg">
<path d="M12.4705 7.02116C12.4705 5.68891 11.9499 4.41123 11.0232 3.46918C10.0966 2.52714 8.83978 1.9979 7.5293 1.9979C6.21882 1.9979 4.96201 2.52714 4.03536 3.46918C3.10871 4.41123 2.58812 5.68891 2.58812 7.02116V13.7188H12.4705V7.02116ZM14.1175 14.2773L14.4469 14.7235C14.4928 14.7857 14.5208 14.8596 14.5276 14.9371C14.5345 15.0145 14.52 15.0923 14.4858 15.1619C14.4516 15.2314 14.3991 15.2899 14.334 15.3307C14.269 15.3716 14.194 15.3933 14.1175 15.3933H0.941062C0.864592 15.3933 0.789633 15.3716 0.724584 15.3307C0.659535 15.2899 0.606966 15.2314 0.572768 15.1619C0.53857 15.0923 0.524093 15.0145 0.530961 14.9371C0.537828 14.8596 0.565768 14.7857 0.61165 14.7235L0.941062 14.2773V7.02116C0.941062 5.24483 1.63518 3.54125 2.87071 2.28519C4.10625 1.02913 5.78199 0.323486 7.5293 0.323486C9.27661 0.323486 10.9523 1.02913 12.1879 2.28519C13.4234 3.54125 14.1175 5.24483 14.1175 7.02116V14.2773ZM5.47047 16.2305H9.58812C9.58812 16.7856 9.37121 17.3179 8.98511 17.7105C8.599 18.103 8.07533 18.3235 7.5293 18.3235C6.98326 18.3235 6.45959 18.103 6.07349 17.7105C5.68738 17.3179 5.47047 16.7856 5.47047 16.2305V16.2305Z" fill="white"/>
</svg>
