<svg width="18" height="16" viewBox="0 0 18 16" fill="none" xmlns="http://www.w3.org/2000/svg">
<path d="M13.5901 11.5128L17.0631 14.8855L15.9157 16L12.4435 12.6266C11.1516 13.6325 9.54462 14.1797 7.88879 14.1774C3.86031 14.1774 0.59082 11.0017 0.59082 7.08871C0.59082 3.17574 3.86031 0 7.88879 0C11.9173 0 15.1868 3.17574 15.1868 7.08871C15.1891 8.69706 14.6258 10.2579 13.5901 11.5128ZM11.9635 10.9284C12.9926 9.90047 13.5673 8.52254 13.565 7.08871C13.565 4.04214 11.0245 1.57527 7.88879 1.57527C4.75228 1.57527 2.21259 4.04214 2.21259 7.08871C2.21259 10.1345 4.75228 12.6021 7.88879 12.6021C9.36495 12.6044 10.7836 12.0462 11.8419 11.0466L11.9635 10.9284V10.9284Z" fill="#838383"/>
</svg>
