<svg width="12" height="12" viewBox="0 0 12 12" fill="none" xmlns="http://www.w3.org/2000/svg">
<path d="M11.9993 8.94617V11.3034C11.9994 11.4721 11.9355 11.6347 11.8204 11.7581C11.7053 11.8816 11.5477 11.9569 11.3794 11.9687C11.0881 11.9887 10.8501 11.9993 10.6661 11.9993C4.77507 11.9993 0 7.22427 0 1.33326C0 1.14927 0.00999945 0.911283 0.030665 0.619966C0.0424792 0.451604 0.117714 0.293991 0.241189 0.178929C0.364664 0.0638677 0.527186 -7.62845e-05 0.695961 1.71043e-07H3.05316C3.13585 -8.35517e-05 3.21562 0.030571 3.27697 0.0860089C3.33832 0.141447 3.37688 0.21771 3.38515 0.299984C3.40048 0.453308 3.41448 0.575301 3.42781 0.667963C3.56029 1.59253 3.83179 2.49175 4.2331 3.33515C4.29643 3.46847 4.2551 3.6278 4.1351 3.71313L2.69652 4.74107C3.5761 6.79059 5.20941 8.4239 7.25893 9.30348L8.28554 7.86756C8.3275 7.8089 8.38872 7.76682 8.45853 7.74867C8.52833 7.73052 8.6023 7.73744 8.66752 7.76823C9.51082 8.16879 10.4098 8.43961 11.334 8.57152C11.4267 8.58486 11.5487 8.59952 11.7007 8.61419C11.7828 8.62261 11.8589 8.66123 11.9142 8.72257C11.9695 8.7839 12.0001 8.86358 12 8.94617H11.9993Z" fill="white"/>
</svg>
